<svg class="w-6 h-6" width="24" height="24" viewBox="0 0 24 24" fill="none" xmlns="http://www.w3.org/2000/svg"><path d="M15.3691 9.22462C15.7619 8.90427 16.3409 8.92686 16.707 9.29298C17.0731 9.65909 17.0957 10.2381 16.7754 10.6309L16.707 10.707L12.707 14.707C12.3165 15.0976 11.6835 15.0976 11.293 14.707C10.9024 14.3165 10.9024 13.6835 11.293 13.293L15.293 9.29298L15.3691 9.22462Z" fill="#686583" style="fill-opacity:1;"/><path d="M21 13.9995C21 12.4198 20.5838 10.8676 19.7939 9.49951C19.0041 8.13144 17.8681 6.99546 16.5 6.20557C15.1318 5.41561 13.5799 4.99951 12 4.99951C10.4201 4.99951 8.8682 5.41561 7.5 6.20557C6.13192 6.99546 4.99594 8.13144 4.20605 9.49951C3.41621 10.8676 3 12.4198 3 13.9995C3.00006 15.4808 3.36571 16.938 4.0625 18.2417L4.20605 18.4995L4.25293 18.5913C4.4605 19.0535 4.28812 19.6069 3.83984 19.8657C3.39153 20.1246 2.82582 19.9974 2.5293 19.5864L2.47363 19.4995L2.29785 19.1841C1.44641 17.5908 1.00007 15.8098 1 13.9995C1 12.0687 1.50827 10.1717 2.47363 8.49951C3.43906 6.82733 4.82783 5.4386 6.5 4.47314C8.1722 3.50771 10.0691 2.99951 12 2.99951C13.9309 2.99951 15.8278 3.50771 17.5 4.47314C19.1722 5.4386 20.5609 6.82733 21.5264 8.49951C22.4917 10.1717 23 12.0687 23 13.9995C22.9999 15.9303 22.4917 17.8274 21.5264 19.4995C21.2502 19.9778 20.6384 20.1418 20.1602 19.8657C19.6819 19.5896 19.5178 18.9778 19.7939 18.4995C20.5838 17.1314 20.9999 15.5793 21 13.9995Z" fill="#686583" style="fill-opacity:1;"/></svg>