<svg class="w-6 h-6" width="24" height="24" viewBox="0 0 24 24" fill="none" xmlns="http://www.w3.org/2000/svg"><path d="M11.6882 1.0178C12.9496 0.961589 14.2032 1.24805 15.3152 1.84592C16.427 2.44379 17.357 3.33132 18.0056 4.41428C18.6542 5.49732 18.9975 6.73586 18.9998 7.99826V8.00022L18.9939 8.2678C18.9373 9.60104 18.4564 10.8421 17.5476 11.8645L17.4754 11.9377C17.1021 12.2803 16.5224 12.2914 16.1355 11.9475C15.7227 11.5806 15.6856 10.9482 16.0525 10.5354L16.1668 10.4006C16.7208 9.71847 16.9993 8.90629 16.9998 8.00217L16.988 7.66428C16.9336 6.88039 16.6952 6.11846 16.2898 5.44162C15.8264 4.66798 15.1622 4.03371 14.3679 3.60666C13.5736 3.17962 12.678 2.9757 11.7771 3.01584C10.8763 3.05604 10.0029 3.33922 9.24977 3.83518C8.78858 4.13878 8.16876 4.01112 7.865 3.55002C7.56126 3.0888 7.68896 2.46903 8.15016 2.16526C9.20458 1.47086 10.427 1.07402 11.6882 1.0178Z" fill="#686583" style="fill-opacity:1;"/><path d="M1.29298 1.29298C1.65909 0.926863 2.2381 0.904269 2.63087 1.22462L2.70704 1.29298L22.707 21.293L22.7754 21.3692C23.0958 21.7619 23.0732 22.3409 22.707 22.707C22.3409 23.0732 21.7619 23.0958 21.3692 22.7754L21.293 22.707L1.29298 2.70704L1.22462 2.63087C0.904269 2.2381 0.926863 1.65909 1.29298 1.29298Z" fill="#686583" style="fill-opacity:1;"/><path d="M5.41468 5.83517C5.64982 5.38601 6.19183 5.17953 6.67249 5.37228C7.18481 5.57796 7.43359 6.15963 7.22816 6.67209L7.13343 6.93576C6.93735 7.55842 6.91069 8.22412 7.05823 8.86349C7.20573 9.50266 7.52147 10.089 7.97034 10.5627L8.17152 10.759L8.20667 10.7932C8.96291 11.5494 9.72436 12.5203 9.98109 13.8039C10.0893 14.3454 9.73745 14.8724 9.19593 14.9807C8.65455 15.0888 8.1276 14.7378 8.01917 14.1965C7.87589 13.4801 7.43637 12.851 6.79261 12.2072H6.79163C5.95281 11.4341 5.36669 10.4251 5.10999 9.31271C4.84963 8.18414 4.94065 7.00296 5.37171 5.92795L5.41468 5.83517Z" fill="#686583" style="fill-opacity:1;"/><path d="M15 17C15.5523 17 16 17.4477 16 18C16 18.5523 15.5523 19 15 19H9C8.44772 19 8 18.5523 8 18C8 17.4477 8.44772 17 9 17H15Z" fill="#686583" style="fill-opacity:1;"/><path d="M14 21C14.5523 21 15 21.4477 15 22C15 22.5523 14.5523 23 14 23H10C9.44772 23 9 22.5523 9 22C9 21.4477 9.44772 21 10 21H14Z" fill="#686583" style="fill-opacity:1;"/></svg>